<svg xmlns="http://www.w3.org/2000/svg" viewBox="0 0 656.78 216.64"><defs><style>.cls-1{fill:none;stroke:#ff4b5c;stroke-miterlimit:10;stroke-width:10px;}.cls-2{font-size:85px;fill:#2f2e41;font-family:Poppins-BoldItalic, Poppins;font-weight:700;font-style:italic;letter-spacing:0.05em;}</style></defs><g id="Layer_3" data-name="Layer 3"><path class="cls-1" d="M127,400.92l551-2.48s2.92-23.56,40.11-26.56l1.08-6.36s-22.29-4.62,1.84-12.24l.77-5.77s-19.67-3.93,1.38-13.29v-3.69s-58.86,3.12-46.71-40.43c4.11-12.85,19.82-27,59.32-29.57l.84-5.19s-17.44-6.13,3.88-12.45l.53-5.2s-18.49-5.87,2-13.28l.69-5.37s-31.47-.26-30.89-24.69l-548,3.77s-3.32,21.64-39.51,25.86l-1.84,5.74s20.82,4.1-2.24,13.89l-.27,4.19s18.68,4.76-2.38,13.6l-.15,3.26s27.2,1.24,38.27,17.57c10.79,15.41,2.78,46.22-51,53.38v3.67s18.21,5.68-3.49,14.49l-.47,4.65s19.06,4.13-3,13.86l-.54,4.19S134.08,380,127,400.92Z" transform="translate(-92.58 -189.32)"/><text class="cls-2" transform="translate(106.28 138.65) rotate(-0.32)">EVENTSIN</text></g></svg>