<svg id="Layer_1" data-name="Layer 1" xmlns="http://www.w3.org/2000/svg" viewBox="0 0 656.81 216.64"><defs><style>.cls-1{fill:none;stroke:#ff4b5c;stroke-miterlimit:10;stroke-width:10px;}.cls-2{isolation:isolate;font-size:85px;fill:#ff4b5c;font-family:Poppins-BoldItalic, Poppins;font-weight:700;font-style:italic;letter-spacing:0.05em;}</style></defs><g id="Layer_3" data-name="Layer 3"><path class="cls-1" d="M34.42,211.6l551-2.48s2.92-23.56,40.11-26.56l1.08-6.36s-22.29-4.62,1.84-12.24l.77-5.77s-19.67-3.93,1.38-13.29v-3.69s-58.86,3.12-46.71-40.43c4.11-12.85,19.82-27,59.32-29.57l.84-5.19s-17.44-6.13,3.88-12.45l.53-5.2s-18.49-5.87,2-13.28l.69-5.37S619.68,29.46,620.26,5L72.26,8.8S68.94,30.44,32.75,34.66L30.91,40.4s20.82,4.1-2.24,13.89l-.27,4.19S47.08,63.24,26,72.08l-.15,3.26s27.2,1.24,38.27,17.57c10.79,15.41,2.78,46.22-51,53.38V150s18.21,5.68-3.49,14.49l-.47,4.65s19.06,4.13-3,13.86l-.54,4.19S41.5,190.68,34.42,211.6Z" transform="translate(-0.02 0.01)"/><text class="cls-2" transform="translate(106.26 138.66) rotate(-0.32)">EVENTSIN</text></g></svg>